PathFileType	4	(X/Y/Z)	D:/ViconDB/Teaching_2017/Workshops/171025_A1_Demo01/Demo/171025_Guy_ROM_body_01_unlab.trc
DataRate	CameraRate	NumFrames	NumMarkers	Units	OrigDataRate	OrigDataStartFrame	OrigNumFrames
120.000000	120.000000	4	1	mm	120.000000	106	120
Frame#	Time	Unlabeled_Markers			
		X0	Y0	Z0	
106	0.883333				163.522125	83.662582	96.316132	-37.019886	1843.306274	-14.879160	-178.034622	79.076202	83.189140	129.180267	68.209496	-191.305283	126.851669	85.608368	51.711781	-204.426895	76.845596	27.134197	236.906540	1221.763306	-68.125587	-124.418304	76.035568	42.900036	-116.417801	75.764923	-194.618683	142.747177	1502.070435	-111.246490	179.523102	124.411934	-134.938004	208.002045	79.337173	42.531906	-7.379867	1553.837158	-100.033470	-179.176071	127.247948	-146.510773	-305.444031	865.062561	41.653637	196.056915	332.997925	-94.074013	262.367126	926.586365	34.376095	262.410919	1168.520020	-9.114551	-169.469559	1501.357544	-109.724625	64.773445	1735.175293	-41.146835	-239.170349	1207.741577	-108.070442	-198.745605	413.111481	-94.109108	237.648941	1356.501953	-33.383553	-91.332916	1717.199707	-73.945679	-301.834167	1047.750977	-14.631967	117.880455	1172.077148	-96.926865	-285.062836	919.128479	-14.105946	-292.839386	1167.117310	-54.077389	-185.765060	565.912048	-21.731670	-103.114639	1788.229614	56.308933	182.942993	662.777344	-16.727287	274.885986	871.858765	91.839081	255.323135	887.130920	118.028793	175.141815	549.592346	-14.502533	-0.906854	1375.497314	-130.028244	-117.082199	1157.845459	-113.270538	-258.050507	1361.585815	-52.024582	-10.970197	1484.079956	75.168419	-295.672241	871.370422	80.866982	-161.160767	650.506287	41.337040	-156.454330	1508.789429	8.715355	259.299103	1054.367920	51.274029	-202.313828	1012.041199	-62.260010	23.941500	1793.937622	76.120064	184.650330	981.760193	-20.665506	-136.646545	753.227661	65.596336	-141.775574	1093.224854	88.864029	113.470299	629.949646	49.165043	126.185120	1506.480713	28.351873	-4.533936	1347.222778	117.165291	-260.473633	944.423706	60.740547	208.378830	933.043030	99.052238	118.248497	1090.082886	88.928413																																																																																																																																																																																																																																																																																																																																																																																																																																																																																																																																																																																																															
107	0.891667				163.507599	83.675285	96.305267	-37.024403	1843.312378	-14.952630	-178.049484	79.070259	83.162811	129.120453	68.187294	-191.279022	126.811958	85.601746	51.683071	-204.456482	76.802544	27.119051	236.882858	1221.755981	-68.178246	-124.441254	76.016388	42.895397	-116.446915	75.764511	-194.621841	142.789505	1502.112549	-111.339508	179.500092	124.437729	-134.937317	207.986694	79.324348	42.549881	-7.394933	1553.831665	-100.135246	-179.204346	127.226105	-146.518204	-305.475616	865.031311	41.544968	196.073654	333.043701	-94.086349	262.317261	926.615417	34.420063	262.411804	1168.548950	-9.121594	-169.493683	1501.344849	-109.815285	64.763779	1735.205566	-41.166424	-239.208542	1207.762695	-108.170860	-198.741165	413.096893	-94.107368	237.650238	1356.503296	-33.444218	-91.226822	1717.268311	-73.720985	-301.871429	1047.718872	-14.758150	117.903519	1172.115234	-96.942162	-285.090820	919.107910	-14.217085	-292.881958	1167.112671	-54.196232	-185.762589	565.865112	-21.770044	-103.215210	1788.193115	56.170563	182.982208	662.832397	-16.731302	274.823853	871.919739	91.936981	255.234131	887.134705	118.081528	175.201797	549.651123	-14.506410	-0.916177	1375.522705	-130.105225	-117.070503	1157.879028	-113.334702	-258.091064	1361.544434	-52.195091	-11.175766	1483.914063	74.992645	-295.768066	871.350464	80.770760	-161.145294	650.474365	41.271400	-156.869232	1508.420532	8.302608	259.277466	1054.400024	51.280544	-201.798172	1012.233765	-61.130726	23.921022	1793.978516	76.039101	184.675354	981.836304	-20.656372	-136.620880	753.233765	65.547523	-141.756439	1093.193481	88.791786	113.477524	629.941223	49.096729	126.208336	1506.486694	28.284657	-4.601121	1347.189697	117.048286	-260.517029	944.404602	60.669147	208.317932	933.059021	99.073021	118.254547	1090.114380	88.906555																																																																																																																																																																																																																																																																																																																																																																																																																																																																																																																																																																																																															
108	0.900000				163.480270	83.693840	96.327080	-37.042881	1843.327026	-15.037638	-178.070908	79.116646	83.229393	129.099426	68.207970	-191.269348	126.766243	85.615265	51.711704	-204.470993	76.801254	27.124506	236.843918	1221.749878	-68.201401	-124.484138	76.003227	42.887024	-116.504204	75.785072	-194.604462	142.785461	1502.126953	-111.438789	179.474533	124.457947	-134.933792	207.967758	79.381828	42.574226	-7.441047	1553.840698	-100.224304	-179.270828	127.251480	-146.497421	-305.519836	865.031616	41.462811	196.070786	333.088348	-94.085869	262.232056	926.633911	34.455330	262.377472	1168.565063	-9.150576	-169.477707	1501.468018	-109.930511	64.703514	1735.238770	-41.196404	-239.236450	1207.776245	-108.275993	-198.768890	413.141571	-94.134300	237.620224	1356.515381	-33.492466	-91.238548	1717.304565	-73.748825	-301.882507	1047.700195	-14.849709	117.878860	1172.152954	-96.998451	-285.129639	919.124207	-14.277770	-292.901031	1167.117676	-54.265575	-185.756104	565.866272	-21.826719	-103.206284	1788.171631	56.061924	182.987305	662.882385	-16.734232	274.736145	871.971558	92.013138	255.126862	887.176086	118.126122	175.225708	549.703857	-14.521123	-0.906429	1375.567261	-130.172470	-117.096001	1157.934814	-113.424561	-258.118835	1361.543091	-52.315090	-11.248825	1483.933105	74.875534	-295.689941	871.286438	80.633125	-161.109467	650.513245	41.242878	-156.991058	1508.377075	8.091734	259.222870	1054.443359	51.285637	-201.724518	1012.241699	-60.981606	23.885599	1794.025146	75.983696	184.677002	981.916931	-20.678144	-136.554993	753.285767	65.535461	-141.708755	1093.197876	88.753395	113.535088	629.995483	49.115776	126.174614	1506.488159	28.194145	-4.668627	1347.179688	116.932854	-260.523376	944.436279	60.623135	208.230576	933.076538	99.116974	118.256798	1090.108032	88.867546																																																																																																																																																																																																																																																																																																																																																																																																																																																																																																																																																																																																															
109	0.908333				163.493179	83.724411	96.323433	-37.045727	1843.348511	-15.124251	-178.121292	79.085228	83.161926	129.109665	68.216385	-191.251389	126.778496	85.630470	51.706379	-204.457092	76.829514	27.124994	236.802094	1221.741333	-68.229836	-124.511581	76.030190	42.891064	-116.495163	75.777153	-194.608200	142.738602	1502.069702	-111.522362	179.480118	124.438820	-134.956696	207.976044	79.404465	42.572037	-7.441395	1553.833008	-100.325729	-179.223938	127.261055	-146.482101	-305.532104	865.062561	41.380230	196.071457	333.101135	-94.084274	262.173004	926.647949	34.512024	262.338898	1168.562256	-9.154024	-169.514755	1501.379395	-110.017410	64.670074	1735.268677	-41.187862	-239.224304	1207.775146	-108.364815	-198.752045	413.142548	-94.166420	237.593918	1356.501099	-33.550022	-91.199921	1717.322510	-73.864265	-301.919373	1047.733154	-14.958428	117.891762	1172.156128	-97.004066	-285.144928	919.150818	-14.362797	-292.902954	1167.121338	-54.373989	-185.717361	565.902771	-21.878262	-103.227760	1788.187134	55.962746	183.011154	662.902588	-16.741976	274.683197	872.002258	92.075089	255.092407	887.237305	118.210152	175.249695	549.749695	-14.524575	-0.907939	1375.520874	-130.211731	-117.049339	1157.900513	-113.436852	-258.160095	1361.586792	-52.452686	-11.276237	1483.964478	74.788269	-295.696716	871.318176	80.563072	-161.101288	650.526428	41.185432	-156.993164	1508.410522	7.988219	259.174561	1054.444336	51.314499	-201.735580	1012.253967	-61.083321	23.868217	1794.042358	75.908966	184.722260	981.931641	-20.678782	-136.552353	753.292969	65.454689	-141.751877	1093.250488	88.706680	113.593437	630.044739	49.128506	126.157326	1506.484253	28.095579	-4.699783	1347.221802	116.857834	-260.571289	944.456238	60.554054	208.188873	933.125671	99.169472	118.246307	1090.140137	88.829933																																																																																																																																																																																																																																																																																																																																																																																																																																																																																																																																																																																																															
